<svg xmlns="http://www.w3.org/2000/svg" viewBox="0 0 512 512"><defs><linearGradient id="g" x1="0" y1="0" x2="1" y2="1"><stop offset="0" stop-color="#45a8ff"/><stop offset="1" stop-color="#4ff3ff"/></linearGradient></defs><rect width="512" height="512" rx="128" fill="#07111f"/><path d="M256 82c94 0 170 76 170 170 0 105-77 161-170 178-93-17-170-73-170-178 0-94 76-170 170-170Z" fill="url(#g)" opacity=".17" stroke="url(#g)" stroke-width="18"/><path d="M190 150h83c61 0 101 34 101 88 0 56-41 91-104 91h-34v70h-46V150Zm46 40v99h32c37 0 59-17 59-50 0-32-22-49-58-49h-33Z" fill="url(#g)"/></svg>